<?xml version="1.0" standalone="no"?>
<!DOCTYPE svg PUBLIC "-//W3C//DTD SVG 20010904//EN"
 "http://www.w3.org/TR/2001/REC-SVG-20010904/DTD/svg10.dtd">
<svg version="1.0" xmlns="http://www.w3.org/2000/svg"
 width="1024.000000pt" height="500.000000pt" viewBox="0 0 1024.000000 500.000000"
 preserveAspectRatio="xMidYMid meet">

<g transform="translate(0.000000,500.000000) scale(0.100000,-0.100000)"
fill="#000000" stroke="none">
<path d="M4438 3043 c12 -2 30 -2 40 0 9 3 -1 5 -23 4 -22 0 -30 -2 -17 -4z"/>
<path d="M4568 3043 c6 -2 18 -2 25 0 6 3 1 5 -13 5 -14 0 -19 -2 -12 -5z"/>
<path d="M4622 3002 l-2 -43 -104 3 c-57 2 -102 0 -99 -4 2 -5 49 -8 104 -8
110 0 114 2 106 62 -3 29 -4 28 -5 -10z"/>
<path d="M6653 2853 c9 -2 23 -2 30 0 6 3 -1 5 -18 5 -16 0 -22 -2 -12 -5z"/>
<path d="M6743 2853 c9 -2 23 -2 30 0 6 3 -1 5 -18 5 -16 0 -22 -2 -12 -5z"/>
<path d="M5848 2843 c17 -2 47 -2 65 0 17 2 3 4 -33 4 -36 0 -50 -2 -32 -4z"/>
<path d="M6598 2843 c7 -3 16 -2 19 1 4 3 -2 6 -13 5 -11 0 -14 -3 -6 -6z"/>
<path d="M5715 2821 c-52 -25 -44 -25 25 -1 30 11 46 19 35 19 -11 0 -38 -8
-60 -18z"/>
<path d="M5968 2833 c7 -3 16 -2 19 1 4 3 -2 6 -13 5 -11 0 -14 -3 -6 -6z"/>
<path d="M6518 2819 c-21 -11 -38 -22 -38 -24 0 -3 17 3 38 13 20 11 44 22 52
25 13 5 13 5 0 6 -8 0 -32 -9 -52 -20z"/>
<path d="M6010 2823 c8 -3 30 -12 48 -19 17 -7 32 -11 32 -8 0 7 -67 34 -82
33 -8 0 -8 -3 2 -6z"/>
<path d="M6933 2797 c32 -17 83 -57 114 -87 41 -40 50 -46 34 -22 -24 35 -104
99 -158 126 -57 29 -50 17 10 -17z"/>
<path d="M5640 2784 c-36 -25 -98 -84 -123 -119 -12 -16 8 0 43 36 36 36 76
73 90 82 14 9 23 16 20 16 -3 1 -17 -6 -30 -15z"/>
<path d="M4485 2390 c0 -223 1 -314 2 -203 2 112 2 294 0 405 -1 112 -2 21 -2
-202z"/>
<path d="M6100 2787 c0 -3 12 -12 26 -22 15 -9 23 -12 20 -6 -7 11 -46 35 -46
28z"/>
<path d="M6415 2754 c-19 -15 -22 -21 -9 -15 18 9 52 41 43 41 -2 0 -17 -12
-34 -26z"/>
<path d="M5798 2753 c6 -2 18 -2 25 0 6 3 1 5 -13 5 -14 0 -19 -2 -12 -5z"/>
<path d="M5938 2753 c6 -2 18 -2 25 0 6 3 1 5 -13 5 -14 0 -19 -2 -12 -5z"/>
<path d="M6664 2746 c-44 -20 -64 -53 -64 -107 0 -152 220 -158 237 -6 5 40 2
48 -28 81 -40 43 -94 55 -145 32z"/>
<path d="M3608 2743 c7 -3 16 -2 19 1 4 3 -2 6 -13 5 -11 0 -14 -3 -6 -6z"/>
<path d="M6020 2729 c24 -11 54 -28 65 -37 19 -16 19 -16 5 1 -15 20 -82 57
-102 57 -7 0 7 -10 32 -21z"/>
<path d="M3164 2590 c0 -80 2 -112 3 -72 2 39 2 105 0 145 -1 39 -3 7 -3 -73z"/>
<path d="M5679 2699 l-24 -20 28 17 c15 9 27 18 27 20 0 8 -8 4 -31 -17z"/>
<path d="M6351 2685 c-30 -34 -71 -106 -71 -122 0 -4 14 17 31 47 16 30 42 67
56 82 15 16 24 28 21 28 -3 0 -20 -16 -37 -35z"/>
<path d="M6149 2693 c-13 -16 -12 -17 4 -4 16 13 21 21 13 21 -2 0 -10 -8 -17
-17z"/>
<path d="M5624 2658 l-19 -23 23 19 c12 11 22 21 22 23 0 8 -8 2 -26 -19z"/>
<path d="M7122 2605 c12 -24 23 -43 26 -41 4 5 -36 86 -43 86 -3 0 5 -20 17
-45z"/>
<path d="M5557 2563 c-4 -3 -7 -11 -7 -17 0 -6 5 -5 12 2 6 6 9 14 7 17 -3 3
-9 2 -12 -2z"/>
<path d="M6266 2524 c-4 -14 -5 -28 -3 -31 3 -2 8 8 11 23 4 14 5 28 3 31 -3
2 -8 -8 -11 -23z"/>
<path d="M6430 2507 c-39 -13 -80 -67 -80 -104 0 -81 85 -139 165 -113 68 23
100 115 61 175 -28 42 -93 61 -146 42z"/>
<path d="M6925 2513 c-67 -17 -104 -85 -82 -150 17 -51 58 -78 115 -78 137 0
168 176 39 224 -30 11 -39 12 -72 4z"/>
<path d="M7161 2504 c0 -11 3 -14 6 -6 3 7 2 16 -1 19 -3 4 -6 -2 -5 -13z"/>
<path d="M5441 2494 c0 -11 3 -14 6 -6 3 7 2 16 -1 19 -3 4 -6 -2 -5 -13z"/>
<path d="M6697 2469 c-56 -15 -72 -67 -36 -113 43 -54 129 -23 129 47 0 51
-41 80 -93 66z"/>
<path d="M7173 2405 c0 -38 2 -53 4 -32 2 20 2 52 0 70 -2 17 -4 1 -4 -38z"/>
<path d="M5433 2400 c0 -36 2 -50 4 -32 2 17 2 47 0 65 -2 17 -4 3 -4 -33z"/>
<path d="M5523 2400 c0 -36 2 -50 4 -32 2 17 2 47 0 65 -2 17 -4 3 -4 -33z"/>
<path d="M6253 2405 c0 -33 2 -45 4 -27 2 18 2 45 0 60 -2 15 -4 0 -4 -33z"/>
<path d="M5867 2393 c-4 -3 -7 -11 -7 -17 0 -7 3 -6 8 1 5 8 47 13 127 16
l120 3 -121 2 c-66 1 -124 -1 -127 -5z"/>
<path d="M6120 2396 c0 -2 9 -6 20 -9 11 -3 18 -1 14 4 -5 9 -34 13 -34 5z"/>
<path d="M4959 2363 c-13 -16 -12 -17 4 -4 9 7 17 15 17 17 0 8 -8 3 -21 -13z"/>
<path d="M6162 2213 l-2 -163 125 0 c69 0 125 3 125 8 -1 4 -22 30 -47 57 -26
28 -40 41 -33 30 8 -11 27 -35 44 -52 l30 -33 -117 0 -116 0 -4 158 -3 157 -2
-162z"/>
<path d="M3164 2175 c0 -99 2 -138 3 -87 2 51 2 132 0 180 -1 48 -3 6 -3 -93z"/>
<path d="M6261 2314 c-1 -21 19 -88 24 -82 2 2 -3 26 -10 53 -8 28 -14 41 -14
29z"/>
<path d="M5531 2304 c0 -11 3 -14 6 -6 3 7 2 16 -1 19 -3 4 -6 -2 -5 -13z"/>
<path d="M5938 2313 c29 -2 74 -2 100 0 26 2 2 3 -53 3 -55 0 -76 -1 -47 -3z"/>
<path d="M7161 2304 c0 -11 3 -14 6 -6 3 7 2 16 -1 19 -3 4 -6 -2 -5 -13z"/>
<path d="M5441 2294 c0 -11 3 -14 6 -6 3 7 2 16 -1 19 -3 4 -6 -2 -5 -13z"/>
<path d="M6664 2266 c-45 -20 -64 -53 -64 -109 0 -40 5 -54 28 -77 77 -77 212
-21 212 88 0 75 -102 132 -176 98z"/>
<path d="M5550 2245 c0 -10 40 -75 47 -75 2 0 -6 17 -18 38 -28 45 -29 47 -29
37z"/>
<path d="M5480 2193 c0 -19 86 -128 116 -147 22 -14 18 -7 -15 25 -24 24 -57
64 -73 88 -15 25 -28 40 -28 34z"/>
<path d="M6300 2191 c0 -6 4 -13 10 -16 6 -3 7 1 4 9 -7 18 -14 21 -14 7z"/>
<path d="M7110 2180 c-6 -11 -8 -20 -6 -20 3 0 10 9 16 20 6 11 8 20 6 20 -3
0 -10 -9 -16 -20z"/>
<path d="M5640 2119 c35 -30 102 -69 117 -69 4 1 -11 11 -34 23 -23 12 -55 34
-72 50 -17 15 -34 27 -38 27 -5 -1 8 -14 27 -31z"/>
<path d="M7044 2096 c-32 -33 -79 -67 -124 -90 -40 -20 -67 -36 -61 -36 20 0
113 51 153 83 32 26 96 98 86 97 -2 -1 -26 -25 -54 -54z"/>
<path d="M5975 2050 c-13 -6 -15 -9 -5 -9 8 0 22 4 30 9 18 12 2 12 -25 0z"/>
<path d="M5843 2033 c20 -2 54 -2 75 0 20 2 3 4 -38 4 -41 0 -58 -2 -37 -4z"/>
<path d="M5636 2019 c6 -11 64 -42 69 -37 2 2 -14 13 -36 25 -21 12 -37 17
-33 12z"/>
<path d="M5730 1970 c8 -5 22 -9 30 -9 10 0 8 3 -5 9 -27 12 -43 12 -25 0z"/>
<path d="M6818 1963 c7 -3 16 -2 19 1 4 3 -2 6 -13 5 -11 0 -14 -3 -6 -6z"/>
<path d="M5798 1953 c6 -2 18 -2 25 0 6 3 1 5 -13 5 -14 0 -19 -2 -12 -5z"/>
<path d="M6758 1953 c6 -2 18 -2 25 0 6 3 1 5 -13 5 -14 0 -19 -2 -12 -5z"/>
</g>
</svg>
